# xmcd CD database file
#
# Track frame offsets:
#	150
#	12305
#	32861
#	48016
#	63171
#	74127
#	97983
#	113438
#	125143
#	136999
#	149305
#	168660
#	179616
#	196272
#	213227
#	225833
#	238888
#	250744
#
# Disc length: 3735 seconds
#
# Revision: 0
# Processed by: cddbd v1.5.2PL0 Copyright (c) Steve Scherf et al.
# Submitted via: CDex 1.70beta2
#
DISCID=fe0e9512
DTITLE=The Rosenberg Trio with Biréli Lagrène - Djangologists
DYEAR=1900
DGENRE=Jazz
TTITLE0=Vendredi 13
TTITLE1=Dream of You
TTITLE2=Peche A La Mouche
TTITLE3=Clair De Lune
TTITLE4=Choti
TTITLE5=Double Jeu
TTITLE6=What Kind of Friend
TTITLE7=For Sentimental Reasons
TTITLE8=Gipsy Groovin'
TTITLE9=Coquette
TTITLE10=In a Sentimental Mood
TTITLE11=I'll Never Smile Again
TTITLE12=Sweet Chorus
TTITLE13=Webster
TTITLE14=Indifference
TTITLE15=Moonglow
TTITLE16=Yours and Mine
TTITLE17=Tears
EXTD=
EXTT0=
EXTT1=
EXTT2=
EXTT3=
EXTT4=
EXTT5=
EXTT6=
EXTT7=
EXTT8=
EXTT9=
EXTT10=
EXTT11=
EXTT12=
EXTT13=
EXTT14=
EXTT15=
EXTT16=
EXTT17=
PLAYORDER=
